<svg xmlns="http://www.w3.org/2000/svg" viewBox="0 0 420 540" fill="white">
  <!-- Tail (upper right, curving up) -->
  <path d="M 358,205 C 390,170 408,128 392,88 C 384,112 372,140 352,162 C 340,178 338,196 358,205 Z"/>

  <!-- Body main -->
  <ellipse cx="230" cy="308" rx="148" ry="92"/>

  <!-- Haunches / rump -->
  <ellipse cx="342" cy="322" rx="68" ry="85"/>

  <!-- Chest -->
  <ellipse cx="112" cy="322" rx="60" ry="76"/>

  <!-- Neck -->
  <ellipse cx="108" cy="218" rx="44" ry="72" transform="rotate(-12 108 218)"/>

  <!-- Head -->
  <ellipse cx="96" cy="152" rx="74" ry="64"/>

  <!-- Snout (extends left) -->
  <ellipse cx="30" cy="175" rx="52" ry="30"/>

  <!-- Nose tip -->
  <ellipse cx="5" cy="180" rx="12" ry="9"/>

  <!-- Left ear -->
  <polygon points="62,100 44,52 88,97"/>

  <!-- Right ear -->
  <polygon points="110,92 106,44 142,89"/>

  <!-- Front left leg -->
  <ellipse cx="102" cy="443" rx="21" ry="75"/>
  <!-- Front right leg -->
  <ellipse cx="152" cy="446" rx="21" ry="75"/>

  <!-- Back left leg -->
  <ellipse cx="298" cy="440" rx="21" ry="75"/>
  <!-- Back right leg -->
  <ellipse cx="350" cy="443" rx="21" ry="75"/>
</svg>
